<?xml version="1.0" standalone="no"?>
<!DOCTYPE svg PUBLIC "-//W3C//DTD SVG 1.1//EN" "http://www.w3.org/Graphics/SVG/1.1/DTD/svg11.dtd" >
<svg xmlns="http://www.w3.org/2000/svg">
<metadata>Generated by IcoMoon</metadata>
<defs>
<font id="icomoon" horiz-adv-x="1024">
<font-face units-per-em="1024" ascent="960" descent="-64" />
<missing-glyph horiz-adv-x="1024" />
<glyph unicode="&#x20;" horiz-adv-x="512" d="" />
<glyph unicode="&#xe900;" glyph-name="aixin_shixin" d="M32 552.416c0 0.002 0 0.004 0 0.006 0 154.41 125.174 279.584 279.584 279.584 78.567 0 149.565-32.407 200.355-84.584l0.061-0.062c50.851 52.239 121.849 84.646 200.416 84.646 154.41 0 279.584-125.174 279.584-279.584 0-0.002 0-0.004 0-0.007v0c0.001-0.203 0.001-0.442 0.001-0.682 0-91.459-44.142-172.607-112.284-223.303l-0.741-0.527-316.384-260.704c-16.458-13.644-37.793-21.922-61.061-21.922-24.328 0-46.542 9.049-63.46 23.965l0.105-0.091-308.16 270.688c-60.142 51.484-98.016 127.481-98.016 212.323 0 0.089 0 0.178 0 0.267v-0.014z" />
<glyph unicode="&#xe901;" glyph-name="aixin" d="M171.712 388.352l0.352-0.32 287.904-252.8c11.21-9.888 26.023-15.924 42.246-15.924 15.493 0 29.701 5.505 40.773 14.667l-0.107-0.086 296.832 244.544c53.758 39.677 88.24 102.789 88.24 173.954 0 119.064-96.52 215.584-215.584 215.584-71.48 0-134.834-34.787-174.057-88.356l-0.423-0.606-25.888-35.68-25.888 35.616c-39.645 54.185-103.006 88.98-174.493 88.98-119.064 0-215.584-96.52-215.584-215.584 0-65.533 29.24-124.237 75.386-163.776l0.292-0.244zM32 552.416c0 0.002 0 0.004 0 0.006 0 154.41 125.174 279.584 279.584 279.584 78.567 0 149.565-32.407 200.355-84.584l0.061-0.062c50.851 52.239 121.849 84.646 200.416 84.646 154.41 0 279.584-125.174 279.584-279.584 0-0.002 0-0.004 0-0.007v0c0.001-0.203 0.001-0.442 0.001-0.682 0-91.459-44.142-172.607-112.284-223.303l-0.741-0.527-295.36-243.392c-21.944-18.195-50.393-29.235-81.421-29.235-32.434 0-62.050 12.063-84.607 31.948l0.14-0.121-287.744 252.736c-60.124 51.483-97.984 127.468-97.984 212.296 0 0.098 0 0.197 0 0.295v-0.015z" />
<glyph unicode="&#xe902;" glyph-name="bianji" d="M326.118 390.938c-0.691-0.896-1.331-1.766-1.638-2.867l-50.995-193.024c-2.97-11.238 0.051-23.347 8.141-31.872 5.99-6.067 13.978-9.421 22.426-9.421 2.765 0 5.606 0.333 8.32 1.075l185.677 52.301c0.282 0 0.435-0.23 0.691-0.23 2.125 0 4.224 0.794 5.786 2.458l496.563 512.384c14.771 15.258 22.835 36.019 22.835 58.598 0 25.6-10.496 51.2-28.954 70.17l-46.899 48.512c-18.406 18.995-43.238 29.875-68.019 29.875-21.888 0-41.984-8.32-56.806-23.552l-496.384-512.64c-0.538-0.486-0.358-1.203-0.742-1.766zM952.55 771.891l-49.306-50.867-79.974 83.814 48.614 50.202c7.68 7.962 22.579 6.81 31.386-2.381l46.925-48.461c4.864-5.043 7.68-11.802 7.68-18.406 0.026-5.453-1.869-10.342-5.325-13.901zM414.413 382.899l358.323 369.792 79.974-83.891-357.632-369.075-80.666 83.174zM349.107 232.96l25.933 98.099 69.069-71.296-95.002-26.803zM956.774 568.832c-18.79 0-35.354-15.77-35.43-35.43v-479.462c0-25.088-19.712-44.467-44.032-44.467h-763.725c-24.32 0-42.394 19.43-42.394 44.467v789.094c0 25.088 18.074 43.955 42.394 43.955h524.134c18.867 0 34.253 17.357 34.253 36.838s-15.386 36.224-34.253 36.224h-529.357c-59.162 0-108.39-50.56-108.39-111.667v-799.821c0-61.107 49.178-112.512 108.39-112.512h774.144c59.264 0 109.645 51.405 109.645 112.512v485.069c-0.077 19.456-16.589 35.2-35.379 35.2z" />
<glyph unicode="&#xe903;" glyph-name="chengyuan" d="M207.3 647.3c0-107.033 86.767-193.8 193.8-193.8s193.8 86.767 193.8 193.8v0c0 107.033-86.767 193.8-193.8 193.8s-193.8-86.767-193.8-193.8v0zM738.9 126.8c0-169.3-675.5-169.3-675.5 0s151.2 271.2 337.7 271.2 337.8-101.9 337.8-271.2zM644.7 896.5c-47.2 0-90.4-16.9-124-44.9 75.3-36.5 127.4-113.5 127.4-202.9 0-50.8-17-97.5-45.3-135.2 13.5-3 27.4-4.6 41.8-4.6 107 0 193.8 86.8 193.8 193.8s-86.6 193.8-193.7 193.8zM622.6 446.8c-20.4 0-83.1-6.1-104.2-16.1 131.8-26.8 275.1-129.3 275.1-293.1 0-25.6-10.4-48.2-28.7-67.9 110.1 18 195.5 58.2 195.5 120.6 0.1 175.4-151.2 256.5-337.7 256.5z" />
<glyph unicode="&#xe904;" glyph-name="dengjifangyuan" d="M944.014 248.332l-247.381-247.385h-96.869c-16.683 0.124-30.173 13.617-30.293 30.289v97.111l247.267 247.265c9.048 9.048 21.548 14.645 35.356 14.645s26.307-5.596 35.355-14.645l56.565-56.565c9.050-9.048 14.647-21.549 14.647-35.358s-5.597-26.309-14.647-35.357v0zM880.375 297.832l-14.142 14.142c-3.619 3.62-8.619 5.858-14.142 5.858s-10.523-2.239-14.142-5.858l-208.477-208.48v-42.547h42.309l208.6 208.6c3.617 3.619 5.855 8.618 5.855 14.139 0 5.524-2.239 10.525-5.86 14.144v0zM845.328 448.047c-16.569 0-30 13.431-30 30v0 337c0 11.046-8.954 20-20 20v0h-650c-11.046 0-20-8.954-20-20v0-734c0-11.046 8.954-20 20-20v0h306c16.569 0 30-13.431 30-30s-13.431-30-30-30v0h-336c-27.614 0-50 22.386-50 50v0 794c0 27.614 22.386 50 50 50v0h710c27.614 0 50-22.386 50-50v0-367c0-16.569-13.431-30-30-30v0zM216.328 593.068c0 16.557 13.422 29.979 29.979 29.979h448.042c0.051 0 0.112 0.001 0.173 0.001 16.557 0 29.979-13.422 29.979-29.979s-13.422-29.979-29.979-29.979c-0.061 0-0.122 0-0.182 0.001h-448.033c-16.557 0-29.978 13.421-29.979 29.978v0zM581.349 418.047h-335.042c-16.557 0-29.979 13.422-29.979 29.979v0 0.042c0 16.557 13.422 29.979 29.979 29.979h335.042c16.557 0 29.979-13.422 29.979-29.979v0-0.042c0-16.557-13.422-29.979-29.979-29.979v0zM246.307 273.047c-0.051 0-0.112-0.001-0.173-0.001-16.557 0-29.979 13.422-29.979 29.979s13.422 29.979 29.979 29.979c0.061 0 0.122 0 0.182-0.001h221.217c0.051 0 0.112 0 0.173 0 16.557 0 29.979-13.422 29.979-29.979s-13.422-29.979-29.979-29.979c-0.061 0-0.122 0-0.182 0.001h-221.217z" />
<glyph unicode="&#xe905;" glyph-name="dingwei" d="M512 485.5c57.6 0 104.5 46.9 104.5 104.5s-46.9 104.5-104.5 104.5-104.5-46.9-104.5-104.5 46.9-104.5 104.5-104.5zM512 644.5c30.1 0 54.5-24.4 54.5-54.5s-24.4-54.5-54.5-54.5-54.5 24.4-54.5 54.5 24.4 54.5 54.5 54.5zM434.1 254.5c30.8-33.4 55.6-49 77.9-49s47.1 15.6 77.9 49c24.1 26.1 50.9 62.7 75.4 103.1 21.3 34.9 90.6 155.8 90.6 243.9 0 65.2-25.4 126.4-71.5 172.5s-107.4 71.5-172.5 71.5-126.3-25.4-172.4-71.5c-46.1-46.1-71.5-107.3-71.5-172.5 0-88.1 69.4-208.9 90.6-243.9 24.6-40.3 51.4-77 75.5-103.1zM318 601.5c0 107 87 194 194 194s194-87 194-194c0-24.8-8.1-58.9-23.5-98.5-14.5-37.2-34.6-77.5-58.2-116.7-22.5-37.3-46.9-71.2-68.8-95.4-28.7-31.8-41.9-35.2-43.5-35.5-1.6 0.3-14.8 3.7-43.5 35.5-21.8 24.2-46.3 58.1-68.8 95.4-23.6 39.1-43.7 79.5-58.2 116.7-15.4 39.6-23.5 73.7-23.5 98.5zM908.4 109.5l-39.9 249c-5 31.3-31.6 54-63.3 54h-60.2c-13.8 0-25-11.2-25-25s11.2-25 25-25h60.2c7 0 12.8-5 13.9-11.9l39.9-249c0-0.2 0.1-0.4-0.2-0.8-0.3-0.3-0.6-0.3-0.7-0.3h-692.1c-0.2 0-0.5 0-0.7 0.3-0.3 0.3-0.2 0.6-0.2 0.8l39.9 249c1.1 6.9 7 11.9 13.9 11.9h60.1c13.8 0 25 11.2 25 25s-11.2 25-25 25h-60.2c-31.7 0-58.3-22.7-63.3-54l-39.9-249c-2.4-14.8 1.8-29.8 11.5-41.1 9.7-11.4 23.8-17.9 38.8-17.9h692c15 0 29.1 6.5 38.8 17.9 9.8 11.4 14 26.4 11.7 41.1z" />
<glyph unicode="&#xe906;" glyph-name="erweima" d="M91.666 896.058h358.908c36.5-3.567 27.703-66.963 27.703-108.152v-196.1c0-42.618 8.134-94.857-20.474-106.964-18.631-7.883-68.633-2.375-92.739-2.375h-190.293c-43.989 0-104.054-10.362-110.805 27.335v358.923c4.92 13.368 13.571 23.053 27.7 27.333zM141.046 815.241v-255.523h258.946v259.090h-257.74c-1.403-0.2-1.307-1.879-1.206-3.567zM573.423 896.058h358.908c14.64-5.359 24.701-15.243 27.703-32.088v-349.415c-3.286-14.521-10.966-26.923-25.292-30.902-23.413-6.5-62.312-1.186-90.331-1.186h-184.271c-27.789 0-68.973-5.777-91.535 1.186-31.849 9.834-22.882 71.184-22.882 114.097v183.025c0 49.548-11.022 108.359 27.7 115.283zM622.804 815.241v-255.523h258.943v259.090h-257.74c-1.401-0.2-1.308-1.879-1.203-3.567zM259.077 740.368c36.064 6.715 64.424-17.331 65.039-49.918 0.807-42.973-43.672-66.577-78.287-48.729-39.6 20.426-36.995 89.289 13.248 98.647zM740.834 740.368c84.945 15.659 83.317-117.093 0-103.4-53.024 8.714-54.733 93.307 0 103.4zM448.166-0.058h-355.294c-14.751 4.46-24.716 13.642-28.907 28.521v357.734c3.51 10.47 11.608 22.681 24.088 26.149 23.578 6.546 62.085 1.186 90.328 1.186h184.274c27.234 0 66.867 5.999 91.532-1.186 33.369-9.723 24.088-70.075 24.088-112.908v-188.967c0.002-46.231 10.089-106.404-30.109-110.529zM141.046 332.715v-255.523h258.946v259.090h-257.74c-1.403-0.2-1.307-1.879-1.206-3.567zM960.034 381.445v-99.833c-2.811-33.674-0.403-72.495-1.207-108.152h-256.533v58.234c-24.091 2.775-53.395 0.4-79.491 1.192-2.811-75.273-0.4-155.693-1.204-232.943h-46.973c-40.386 7.988-28.904 67.787-28.904 115.28v184.217c0 27.7-5.682 69.224 1.204 91.514 8.215 26.591 43.842 22.58 79.491 22.58h174.634v-158.068h80.695c0.801 52.293-1.607 107.755 1.204 158.068 38.834 2.269 74.802 1.71 77.084-32.089zM265.099 259.032c38.507 4.206 70.341-32.315 55.403-72.498-20.707-55.701-119.71-34.764-101.169 35.655 5.123 19.463 19.928 34.020 45.766 36.843zM789.011-0.058h-86.717c0.801 30.505-1.607 64.176 1.204 92.703h85.513v-92.703zM960.034 92.645v-60.615c-3.352-16.901-13.364-27.222-28.907-32.088h-61.425c0.804 30.505-1.604 64.176 1.207 92.703h89.125z" />
<glyph unicode="&#xe907;" glyph-name="fabu" d="M817.657 184.242l-362.947 111.679 362.949 418.788-474.628-418.788-279.195 111.676 893.419 474.628-139.598-697.983zM454.71 16.725v195.436l111.673-55.839-111.673-139.597z" />
<glyph unicode="&#xe908;" glyph-name="fangwu" d="M552.363 858.965l406.955-373.035c6.821-6.262 11.081-15.22 11.081-25.173 0-18.847-15.275-34.127-34.121-34.133h-0.001l-40.277 0.043v-298.667c0-47.128-38.205-85.333-85.333-85.333v0h-597.333c-47.128 0-85.333 38.205-85.333 85.333v0 298.667h-40.235c-18.826 0.033-34.075 15.302-34.075 34.133 0 9.931 4.241 18.872 11.011 25.109l406.936 373.057c10.592 9.734 24.781 15.7 40.363 15.7s29.771-5.966 40.406-15.739l-0.043 0.039zM400.896 345.173c-6.085 5.292-14.090 8.519-22.848 8.519-10.52 0-19.954-4.655-26.353-12.017l-0.036-0.043-6.357-7.979c-15.805-21.257-25.301-48.022-25.301-77.005 0-0.018 0-0.036 0-0.054v0.003-46.677c0-26.453 21.504-48 48-48h288c26.496 0 48 21.504 48 48v46.677c0 30.549-10.667 59.349-29.184 82.005l-1.92 2.176-2.048 2.048c-6.798 6.188-15.875 9.978-25.838 9.978-11.298 0-21.457-4.874-28.491-12.633l-0.029-0.032-2.389-2.603c-1.781-2.021-3.577-3.872-5.459-5.633l-0.045-0.042c-26.069-21.282-59.714-34.176-96.37-34.176-0.080 0-0.16 0-0.24 0h0.012c-0.107 0-0.233 0-0.359 0-43.548 0-82.842 18.208-110.686 47.427l-0.058 0.062zM512 606.805c-63.623 0-115.2-51.577-115.2-115.2v0-40.32c0-63.623 51.577-115.2 115.2-115.2s115.2 51.577 115.2 115.2v0 40.32c0 63.623-51.577 115.2-115.2 115.2v0z" />
<glyph unicode="&#xe909;" glyph-name="gongneng" d="M109.227 802.048c0 20.866 16.902 37.779 37.778 37.779h265.285c20.865 0 37.778-16.903 37.778-37.779v-265.284c0-20.866-16.902-37.779-37.778-37.779h-265.285c-20.865 0-37.778 16.903-37.778 37.779v265.284zM679.759 852.985c14.752 14.753 38.662 14.763 53.425 0l187.59-187.585c14.749-14.753 14.756-38.667 0-53.426l-187.59-187.584c-14.752-14.76-38.663-14.766-53.425 0l-187.587 187.583c-14.752 14.753-14.763 38.666 0 53.426l187.587 187.586zM542.88 354.745c0 20.862 16.9 37.775 37.78 37.775h265.28c20.866 0 37.779-16.9 37.779-37.776v-265.287c0-20.863-16.9-37.776-37.779-37.776h-265.28c-20.867 0-37.78 16.903-37.78 37.776v265.287zM109.227 354.745c0 20.862 16.902 37.775 37.778 37.775h265.285c20.865 0 37.778-16.9 37.778-37.776v-265.287c0-20.863-16.902-37.776-37.778-37.776h-265.285c-20.865 0-37.778 16.903-37.778 37.776v265.287z" />
<glyph unicode="&#xe90a;" glyph-name="guanyuapp" d="M504.8 900.4c-247.5 0-448.1-200.6-448.1-448.1s200.6-448.1 448.1-448.1 448.1 200.6 448.1 448.1-200.6 448.1-448.1 448.1zM458.3 216.5l12.2 330.8h68.7l12.2-330.8h-93.1zM551.9 616.7c-2.6-6.2-6.2-11.7-10.8-16.3s-10-8.2-16.3-10.8c-6.2-2.6-12.9-3.9-19.9-3.9s-13.6 1.3-19.9 3.9-11.7 6.2-16.3 10.8c-4.6 4.6-8.3 10-11 16.3-2.7 6.2-4.1 13-4.1 20.2s1.4 14 4.1 20.2c2.7 6.2 6.4 11.7 11 16.3s10 8.2 16.3 10.8 12.9 3.9 19.9 3.9c7 0 13.6-1.3 19.9-3.9 6.2-2.6 11.7-6.2 16.3-10.8s8.2-10 10.8-16.3c2.6-6.2 3.9-13 3.9-20.2s-1.2-13.9-3.9-20.2z" />
<glyph unicode="&#xe90b;" glyph-name="guzhangshenbao" d="M512 960c-282.624 0-512-229.376-512-512s229.376-512 512-512 512 229.376 512 512-229.376 512-512 512zM512 140.8c-29.184 0-52.224 23.552-52.224 52.224 0 29.184 23.552 52.224 52.224 52.224 29.184 0 52.224-23.552 52.224-52.224s-23.040-52.224-52.224-52.224zM568.832 724.992l-10.752-372.736c-0.512-19.456-20.48-34.816-44.032-34.816h-8.192c-23.552 0-43.52 15.36-44.032 34.816l-11.264 372.736c-1.024 29.696 23.040 54.784 53.76 54.784h10.752c30.72 0 54.784-25.088 53.76-54.784z" />
<glyph unicode="&#xe90c;" glyph-name="kaimen" d="M821.333 911.36h-618.667c-41.237 0-74.667-33.429-74.667-74.667v0-723.627c0-0.034 0-0.073 0-0.113 0-38.079 28.506-69.501 65.342-74.090l0.365-0.037 448-53.76h8.96c0.068 0 0.148 0 0.229 0 36.893 0 67.482 26.988 73.103 62.299l0.055 0.421h97.28c41.237 0 74.667 33.429 74.667 74.667v0 714.24c0 41.237-33.429 74.667-74.667 74.667v0zM661.333 59.307c0-0.023 0-0.050 0-0.077 0-5.891-4.776-10.667-10.667-10.667-0.451 0-0.896 0.028-1.332 0.082l0.052-0.005-448 53.76c-5.315 0.661-9.387 5.15-9.387 10.59 0 0.027 0 0.054 0 0.081v-0.004 669.013c0.221 2.905 1.574 5.456 3.614 7.243l0.012 0.011c1.866 1.639 4.328 2.639 7.024 2.639 0.457 0 0.907-0.029 1.349-0.084l-0.053 0.005 448-53.76c5.315-0.661 9.387-5.15 9.387-10.59 0-0.027 0-0.054 0-0.081v0.004zM832 122.027c0-5.891-4.776-10.667-10.667-10.667v0h-96v616.96c0 0.034 0 0.073 0 0.113 0 38.079-28.506 69.501-65.342 74.090l-0.365 0.037-374.613 44.8h536.32c5.891 0 10.667-4.776 10.667-10.667v0zM565.333 495.36c-17.673 0-32-14.327-32-32v0-128c0-17.673 14.327-32 32-32s32 14.327 32 32v0 128c0 17.673-14.327 32-32 32v0z" />
<glyph unicode="&#xe90d;" glyph-name="kaimenjilu" d="M874.396 1.674h-639.533c-23.547 0-42.635 19.088-42.635 42.635v149.225h-85.271v170.542h85.271v170.542h-85.271v170.542h85.271v149.225c0 23.547 19.088 42.635 42.635 42.635h639.533c23.547 0 42.635-19.088 42.635-42.635v-810.075c0.001-23.548-19.087-42.636-42.635-42.636zM618.583 683.842h-298.449v-42.636h298.448v42.636zM789.125 470.664h-468.99v-42.635h468.99v42.635zM789.125 257.487h-468.99v-42.635h468.99v42.635z" />
<glyph unicode="&#xe90e;" glyph-name="lanya" d="M756.736 280.192l0.096 0.112-195.664 167.696 195.552 167.808c6.848 5.872 11.28 14.48 11.28 24.192-0.033 9.679-4.381 18.337-11.219 24.155l-0.045 0.037 0.096 0.112-224.096 191.888c-5.6 4.8-12.784 7.808-20.736 7.808-17.673 0-32-14.327-32-32v0-314.416l-171.168 146.72-0.096-0.112c-5.6 4.8-12.784 7.808-20.736 7.808-17.673 0-32-14.327-32-32v0c0-9.712 4.432-18.32 11.264-24.192l-0.096-0.112 195.664-167.696-195.568-167.808c-6.883-5.855-11.231-14.513-11.264-24.186v-0.006c0-17.673 14.327-32 32-32v0c7.952 0 15.136 3.008 20.736 7.808l0.096-0.112 171.168 146.72v-314.416c0-17.673 14.327-32 32-32v0c7.952 0 15.136 3.008 20.736 7.808l0.096-0.112 223.904 192.112c6.883 5.855 11.231 14.513 11.264 24.186v0.006c-0.033 9.679-4.381 18.337-11.219 24.155l-0.045 0.037zM686.832 256l-142.832-122.416v244.832l142.832-122.416zM544 517.584v244.832l142.832-122.416-142.832-122.416z" />
<glyph unicode="&#xe90f;" glyph-name="linshiyaoshi" d="M853 774.5l-341 121.5-341-121.5s-56.2-377.7 0-485.9c47.8-92 341-288.6 341-288.6s293.2 196.6 341 288.6c56.2 108.2 0 485.9 0 485.9zM667 317.3h-124v-119.9h-62v275.6c-54.3 13.6-94.7 61.9-94.7 119.3 0 67.9 56.4 123.1 125.7 123.1s125.7-55.2 125.7-123.1c0-57.4-40.3-105.8-94.7-119.3v-91.7h124v-64zM572.3 592.4c0 32.6-27.1 59.1-60.3 59.1s-60.3-26.5-60.3-59.1 27.1-59.1 60.3-59.1 60.3 26.5 60.3 59.1z" />
<glyph unicode="&#xe910;" glyph-name="luyouqi" d="M988.416 138.784l1.504 0.576-101.504 267.328c-9.491 24.287-32.66 41.2-59.794 41.312h-20.622v400c0 17.673-14.327 32-32 32s-32-14.327-32-32v0-400h-200v400c0 17.673-14.327 32-32 32s-32-14.327-32-32v0-400h-208v400c0 17.673-14.327 32-32 32s-32-14.327-32-32v0-400h-12.608c-27.161-0.098-50.345-17.015-59.689-40.875l-0.151-0.437-101.472-267.328 1.504-0.576c-2.112-8.64-3.584-17.504-3.584-26.784 0-61.76 50.24-112 112-112h736c61.76 0 112 50.24 112 112 0 9.28-1.472 18.144-3.584 26.784zM195.392 384h633.184l61.12-160.992c-3.232 0.288-6.368 0.992-9.696 0.992h-736c-3.328 0-6.464-0.704-9.696-0.992l61.088 160.992zM880 64h-736c-26.464 0-48 21.536-48 48s21.536 48 48 48h736c26.464 0 48-21.536 48-48s-21.536-48-48-48z" />
<glyph unicode="&#xe911;" glyph-name="mensuo" d="M800.421 523.475h-63.661v148.673c0 124.507-100.762 225.757-224.732 225.757-123.98 0-224.857-101.25-224.857-225.766v-148.662h-63.593c-30.667 0-55.532-24.952-55.532-55.752v-407.048c0-30.848 24.865-55.82 55.532-55.82h576.9c30.667 0 55.465 24.97 55.465 55.82v407.048c0 30.802-24.855 55.752-55.532 55.752zM543.203 253.591v-88.88c-0.016-4.026-3.264-7.287-7.282-7.325h-47.733c-4.039 0.022-7.307 3.287-7.334 7.322v88.882c-22.423 11.518-37.953 34.602-37.953 61.659 0 38.288 30.945 69.425 69.070 69.425 38.183 0 69.138-31.136 69.138-69.415 0.057-27.067-15.473-50.152-37.905-61.659zM650.514 523.475h-276.989v144.986c0 76.691 62.196 139.146 138.552 139.146 76.366 0 138.447-62.454 138.447-139.146v-144.986z" />
<glyph unicode="&#xe912;" glyph-name="mima" d="M800 512v-352c0-35.3-28.7-64-64-64h-448c-35.3 0-64 28.7-64 64v352h576zM800 576h-576c-35.3 0-64-28.7-64-64v-352c0-70.7 57.3-128 128-128h448c70.7 0 128 57.3 128 128v352c0 35.3-28.7 64-64 64zM512 800c42.7 0 82.9-16.6 113.1-46.9 30.3-30.2 46.9-70.4 46.9-113.1v-64h-320v64c0 42.7 16.6 82.9 46.9 113.1s70.4 46.9 113.1 46.9zM512 864c-123.7 0-224-100.3-224-224v-128h448v128c0 123.7-100.3 224-224 224zM512 400c-17.7 0-32-14.3-32-32v-128c0-17.7 14.3-32 32-32s32 14.3 32 32v128c0 17.7-14.3 32-32 32z" />
<glyph unicode="&#xe913;" glyph-name="paixu" d="M375 62c-19.8 0-36 16.2-36 36v700c0 19.8 16.2 36 36 36s36-16.2 36-36v-700c0-19.8-16.2-36-36-36zM398.2 70.4c-15.2-12.7-38-10.7-50.7 4.4l-210.9 251.3c-12.7 15.2-10.7 38 4.4 50.7 15.2 12.7 38 10.7 50.7-4.4l210.8-251.3c12.8-15.2 10.8-38-4.3-50.7zM649 834c19.8 0 36-16.2 36-36v-700c0-19.8-16.2-36-36-36s-36 16.2-36 36v700c0 19.8 16.2 36 36 36zM625.8 825.6c15.2 12.7 38 10.7 50.7-4.4l210.8-251.3c12.7-15.2 10.7-38-4.4-50.7-15.2-12.7-38-10.7-50.7 4.4l-210.8 251.3c-12.7 15.2-10.7 38 4.4 50.7z" />
<glyph unicode="&#xe914;" glyph-name="renzheng" d="M878.13 781.854h-732.262c-43.579 0-79.007-35.456-79.007-79.007v-509.692c0-43.553 35.429-79.007 79.007-79.007h732.262c43.58 0 79.007 35.454 79.007 79.007v509.692c0 43.551-35.428 79.007-79.007 79.007zM901.495 193.154c0-12.878-10.487-23.365-23.365-23.365h-732.262c-12.878 0-23.365 10.487-23.365 23.365v509.692c0 12.878 10.487 23.365 23.365 23.365h732.262c12.878 0 23.365-10.487 23.365-23.365v-509.692zM407.126 617.345h-178.337c-15.324 0-27.822-12.443-27.822-27.822s12.498-27.822 27.822-27.822h178.337c15.377 0 27.822 12.442 27.822 27.822 0 15.378-12.443 27.822-27.822 27.822zM407.126 479.163h-178.337c-15.324 0-27.822-12.443-27.822-27.822s12.498-27.822 27.822-27.822h178.337c15.377 0 27.822 12.443 27.822 27.822s-12.443 27.822-27.822 27.822zM407.126 341.225h-178.337c-15.324 0-27.822-12.443-27.822-27.822s12.498-27.822 27.822-27.822h178.337c15.377 0 27.822 12.443 27.822 27.822s-12.443 27.822-27.822 27.822zM736.035 439.822c20.159 20.16 32.658 47.982 32.658 78.682 0 61.376-49.883 111.285-111.285 111.285s-111.285-49.909-111.285-111.285c0-29.152 11.519-55.506 29.886-75.394-53.143-27.93-89.93-83.082-89.93-147.229 0-15.377 12.443-27.822 27.822-27.822s27.822 12.443 27.822 27.822c0 61.376 49.937 111.285 111.285 111.285s111.285-49.909 111.285-111.285c0-15.377 12.443-27.822 27.822-27.822s27.822 12.443 27.822 27.822c-0.001 61.674-34.017 115.061-83.9 143.941zM657.409 574.145c30.646 0 55.642-24.968 55.642-55.642s-24.996-55.642-55.642-55.642c-30.647 0-55.642 24.969-55.642 55.642 0 30.675 24.994 55.642 55.642 55.642z" />
<glyph unicode="&#xe915;" glyph-name="rili" d="M896 615v112c0 4.418-3.582 8-8 8v0h-150v-45c0-17.673-14.327-32-32-32s-32 14.327-32 32v45h-324v-45c0-17.673-14.327-32-32-32s-32 14.327-32 32v45h-150c-4.418 0-8-3.582-8-8v0-112h768zM896 551h-768v-479c0-4.418 3.582-8 8-8v0h752c4.418 0 8 3.582 8 8v0 479zM738 799h190c17.673 0 32-14.327 32-32v-735c0-17.673-14.327-32-32-32h-832c-17.673 0-32 14.327-32 32v735c0 17.673 14.327 32 32 32h190v65c0 17.673 14.327 32 32 32s32-14.327 32-32v-65h324v65c0 17.673 14.327 32 32 32s32-14.327 32-32v-65zM289 487h58c17.673 0 32-14.327 32-32s-14.327-32-32-32h-58c-17.673 0-32 14.327-32 32s14.327 32 32 32zM289 359h58c17.673 0 32-14.327 32-32s-14.327-32-32-32h-58c-17.673 0-32 14.327-32 32s14.327 32 32 32zM289 231h58c17.673 0 32-14.327 32-32s-14.327-32-32-32h-58c-17.673 0-32 14.327-32 32s14.327 32 32 32zM483 487h58c17.673 0 32-14.327 32-32s-14.327-32-32-32h-58c-17.673 0-32 14.327-32 32s14.327 32 32 32zM483 359h58c17.673 0 32-14.327 32-32s-14.327-32-32-32h-58c-17.673 0-32 14.327-32 32s14.327 32 32 32zM483 231h58c17.673 0 32-14.327 32-32s-14.327-32-32-32h-58c-17.673 0-32 14.327-32 32s14.327 32 32 32zM677 487h58c17.673 0 32-14.327 32-32s-14.327-32-32-32h-58c-17.673 0-32 14.327-32 32s14.327 32 32 32zM677 359h58c17.673 0 32-14.327 32-32s-14.327-32-32-32h-58c-17.673 0-32 14.327-32 32s14.327 32 32 32zM677 231h58c17.673 0 32-14.327 32-32s-14.327-32-32-32h-58c-17.673 0-32 14.327-32 32s14.327 32 32 32z" />
<glyph unicode="&#xe916;" glyph-name="shanchu" d="M928.16 816h-192.16v80c0 17.673-14.327 32-32 32v0h-384c-17.673 0-32-14.327-32-32v0-80h-192.16c-17.673 0-32-14.327-32-32s14.327-32 32-32v0h33.76l77.92-698.656c5.544-48.23 46.133-85.336 95.391-85.344h418.145c49.267 0.006 89.865 37.11 95.382 84.899l0.042 0.445 77.92 698.656h33.728c0.005 0 0.010 0 0.016 0 17.673 0 32 14.327 32 32 0 17.667-14.318 31.991-31.983 32h-0.001zM352 864h320v-48h-320v48zM752.896 60.448c-1.848-16.078-15.381-28.448-31.802-28.448-0.002 0-0.004 0-0.006 0h-418.176c-0.002 0-0.004 0-0.006 0-16.422 0-29.954 12.37-31.788 28.3l-0.014 0.148-77.12 691.552h636.032l-77.12-691.552zM608 139.072c17.673 0 32 14.327 32 32v0 469.824c0 17.673-14.327 32-32 32s-32-14.327-32-32v0-469.824c0-17.673 14.327-32 32-32v0zM432 139.072c17.673 0 32 14.327 32 32v0 469.824c0 17.673-14.327 32-32 32s-32-14.327-32-32v0-469.824c0-17.673 14.327-32 32-32v0z" />
<glyph unicode="&#xe917;" glyph-name="shangjiantou_shixin" d="M573.056 688l308.8-404.608c9.826-12.771 15.747-28.99 15.747-46.592 0-42.415-34.385-76.8-76.8-76.8-0.024 0-0.047 0-0.071 0h-617.5c-0.001 0-0.002 0-0.003 0-42.415 0-76.8 34.385-76.8 76.8 0 17.602 5.922 33.821 15.881 46.773l-0.134-0.181 308.8 404.608c14.174 18.431 36.234 30.191 61.040 30.191s46.866-11.761 60.906-30.011l0.134-0.181z" />
<glyph unicode="&#xe918;" glyph-name="shangjiantou" d="M832.522 290.049c0 8.782-3.236 17.565-9.708 24.269l-287.176 297.484c-12.933 13.408-33.923 13.408-46.855 0l-287.172-297.485c-12.944-13.408-12.944-35.13 0-48.537 12.933-13.408 33.923-13.408 46.855 0l263.745 273.216 263.748-273.216c12.933-13.408 33.923-13.408 46.855 0 6.472 6.705 9.708 15.487 9.708 24.27z" />
<glyph unicode="&#xe919;" glyph-name="shebei" d="M638.15 350.087h-93.478v-93.319h93.478v93.319zM801.631 350.087h-93.488v-93.319h93.488v93.319zM782.956 765.156h-541.903l-149.522-317.156v-317.156h840.938v317.156l-149.513 317.156zM867.059 191.462h-710.109v228.525h710.109v-228.525z" />
<glyph unicode="&#xe91a;" glyph-name="shexiangtou" d="M768.2 94.6h-129.8v77.8l-252.5 0.1v-77.9h-130c-17.5 0-31.8-14.1-31.9-31.6-0.2-17.8 14.1-32.3 31.9-32.2 55.2 0.1 161.9 0.2 161.9 0.2h350.5c17.6 0 31.8 14.3 31.8 31.8-0.1 17.6-14.3 31.8-31.9 31.8zM574.6 94.6h-125.2v65.8c20.5-2.5 41.4-3.8 62.6-3.9 21.2 0 42.1 1.3 62.6 3.9v-65.8zM765.6 760.1c-64.8 64.9-154.5 105.1-253.4 105.1-99 0.1-188.7-40.1-253.6-105s-105.1-154.5-105.1-253.4c-0.1-99 40-188.7 104.9-253.7 48.6-48.6 111.2-83.4 181.2-97.7v-0.1h0.1c0.8-0.1 1.5-0.2 2.3-0.4 22.6-4.5 46-6.9 70-6.9 23.6 0 46.7 2.3 69 6.6 1.3 0.4 2.7 0.7 4.1 0.9 69.7 14.4 132 49 180.5 97.5 64.9 64.8 105.1 154.4 105.1 253.5-0.1 99-40.2 188.7-105.1 253.6zM728.2 290.3c-41.4-41.4-94.5-70.9-153.9-83.2-1.2-0.1-2.4-0.4-3.5-0.7-19-3.7-38.8-5.6-58.9-5.6-20.5 0-40.4 2.1-59.7 5.9-0.6 0.1-1.3 0.2-1.9 0.3-59.7 12.2-113 41.9-154.5 83.4-55.4 55.4-89.6 131.9-89.5 216.4 0 84.4 34.3 160.8 89.7 216.2 55.4 55.3 131.9 89.6 216.3 89.5s160.8-34.3 216.2-89.7c55.3-55.4 89.6-131.9 89.5-216.3-0.2-84.4-34.5-160.9-89.8-216.2zM673 667.4c-41.2 41.2-98.1 66.7-161 66.8-62.8 0-119.7-25.4-160.9-66.5-41.2-41.2-66.7-98.1-66.7-161-0.1-62.8 25.4-119.7 66.5-160.9 41.2-41.2 98.1-66.7 160.9-66.7 62.9-0.1 119.8 25.4 160.9 66.5 41.2 41.1 66.7 98 66.8 160.9 0 62.9-25.4 119.8-66.5 160.9zM635.4 383.2c-31.6-31.6-75.3-51.2-123.5-51.1-48.2 0-91.8 19.6-123.4 51.1-31.6 31.6-51.2 75.3-51.1 123.5 0 48.2 19.5 91.8 51.1 123.4 31.7 31.6 75.4 51.1 123.5 51.1 48.2 0 91.8-19.6 123.4-51.2s51.1-75.3 51.1-123.5c0.1-48.1-19.5-91.8-51.1-123.3zM595.4 589.9c-21.3 21.3-50.8 34.6-83.4 34.6s-62-13.1-83.3-34.4c-21.4-21.3-34.6-50.8-34.6-83.4 0-32.5 13.2-62 34.5-83.3s50.8-34.5 83.4-34.6c32.5 0 62 13.2 83.3 34.5s34.6 50.8 34.6 83.4c0 32.4-13.2 61.9-34.5 83.2zM557.9 460.8c-11.8-11.8-28-19.1-46-19.1-17.9 0-34.1 7.3-45.8 19-11.8 11.8-19.1 28.1-19.1 45.9 0 17.9 7.3 34.2 19 45.9 11.8 11.7 28.1 19 46 19s34.1-7.3 45.8-19c11.7-11.8 19.1-28.1 19.1-46 0-17.8-7.3-34-19-45.7z" />
<glyph unicode="&#xe91b;" glyph-name="shezhi" d="M519.9 312.6c-44.8-7.4-90.4 6.9-122.5 38.3s-46.6 76.2-39 120c9.4 56.8 56.2 102.7 114.2 112.1 44.9 7.6 90.7-6.7 122.9-38.2 32.2-31.6 46.7-76.5 38.9-120.4-9.7-56.9-56.5-102.6-114.5-111.8zM848.4 401l66 40.4c10.5 6.4 15.6 18.6 12.9 30.4l-32.3 138.9c-2.7 11.8-12.8 20.6-25.1 21.9l-77.5 8.4c-7.7 0.8-14.7 4.6-19.5 10.5l-13 16c-4.8 5.9-7 13.5-6.1 21l8.9 75.7c1.4 12-5.1 23.6-16.2 28.9l-131 61.8c-11.1 5.2-24.4 3-33.2-5.5l-55-54c-5.4-5.3-12.8-8.4-20.6-8.4h-20.7c-7.7 0-15.1 3-20.6 8.4l-55 54c-8.7 8.6-22 10.8-33.2 5.5l-130.9-61.8c-11.1-5.3-17.6-16.8-16.2-28.9l8.9-75.8c0.9-7.5-1.3-15-6.1-21l-12.9-15.8c-4.8-5.9-11.8-9.7-19.5-10.5l-77.5-8.5c-12.3-1.3-22.3-10.1-25.1-21.9l-32.4-138.8c-2.7-11.8 2.4-24 12.9-30.4l66-40.5c6.5-4 11.2-10.4 12.9-17.8l4.6-19.9c1.7-7.4 0.4-15.1-3.7-21.5l-41.6-64.5c-6.6-10.2-5.8-23.4 1.9-32.9l90.7-111.3c7.7-9.5 20.7-13.1 32.3-9.1l73.5 25.3c7.3 2.5 15.3 2.1 22.2-1.2l18.7-8.8c7-3.3 12.3-9.1 14.8-16.3l25.6-72c4.1-11.4 15.1-19.1 27.4-19.1h145.3c12.4 0 23.4 7.7 27.4 19.1l25.6 72c2.5 7.1 7.9 13 14.8 16.3l18.7 8.8c6.9 3.3 14.9 3.7 22.2 1.2l73.5-25.3c11.7-4 24.6-0.4 32.3 9.1l90.7 111.3c7.7 9.5 8.4 22.7 1.9 32.9l-41.6 64.5c-4.1 6.4-5.5 14.1-3.8 21.5l4.6 19.8c1.9 7.5 6.5 13.9 13.1 17.9z" />
<glyph unicode="&#xe91c;" glyph-name="shouji" d="M760.32-64h-496.64c-56.32 0-102.4 46.080-102.4 102.4v819.2c0 56.32 46.080 102.4 102.4 102.4h494.080c56.32 0 102.4-46.080 102.4-102.4v-819.2c2.56-56.32-43.52-102.4-99.84-102.4zM263.68 908.8c-28.16 0-51.2-23.040-51.2-51.2v-819.2c0-28.16 23.040-51.2 51.2-51.2h494.080c28.16 0 51.2 23.040 51.2 51.2v819.2c0 28.16-23.040 51.2-51.2 51.2h-494.080zM593.92 798.72h-161.28c-15.36 0-25.6 10.24-25.6 25.6s10.24 25.6 25.6 25.6h161.28c15.36 0 25.6-10.24 25.6-25.6s-12.8-25.6-25.6-25.6zM186.88 197.12h647.68v-51.2h-647.68zM468.48 71.68c0-24.035 19.485-43.52 43.52-43.52s43.52 19.485 43.52 43.52v0c0 24.035-19.485 43.52-43.52 43.52s-43.52-19.485-43.52-43.52v0z" />
<glyph unicode="&#xe91d;" glyph-name="shouye" d="M229.12 396.8v-301.696h178.56v153.216c0 32.896 26.624 59.52 59.52 59.52h90.368c32.896 0 59.52-26.624 59.52-59.52v-153.088h178.56v301.568l-283.392 301.184-283.136-301.184zM555.776 799.104c-11.776 11.776-27.392 18.176-44.032 18.176s-32.256-6.528-44.544-18.816l-390.016-413.824h72.832l355.328 376.96c2.304 2.304 5.12 2.688 6.528 2.688s4.096-0.384 6.016-2.176l356.096-377.472h72.832l-391.040 414.464z" />
<glyph unicode="&#xe91e;" glyph-name="tianjia" d="M471.791 960h80.418v-1024h-80.418zM0 488.209h1024v-80.418h-1024z" />
<glyph unicode="&#xe91f;" glyph-name="wangguan" d="M964.064 308.96l-69.504 460.256c-2.72 34.592-33.216 62.784-69.888 62.784h-620.992c-0.002 0-0.005 0-0.007 0-36.841 0-67.066-28.324-70.088-64.384l-0.017-0.256-69.248-448.288-0.32-4.896 3.392-158.464 0.896-3.328c8.36-30.162 35.568-51.936 67.862-51.936 0.003 0 0.007 0 0.010 0h756.543c31.296 0 58.848 20.704 67.552 50.752l1.056 3.584 3.040 149.408-0.288 4.768zM189.376 760.8c0.832 9.344 6.944 14.976 14.272 14.976h620.992c7.374-0.010 13.418-5.688 14.013-12.909l0.003-0.051 62.208-412.16h-774.752l63.264 410.144zM905.248 164.32c-2.393-4.559-7.094-7.616-12.509-7.616-0.001 0-0.002 0-0.004 0h-756.544c-0.001 0-0.003 0-0.004 0-5.566 0-10.377 3.229-12.663 7.917l-0.037 0.083-2.816 129.664h787.232l-2.656-130.048zM753.216 184.992h84.352c14.964 0.736 26.818 13.048 26.818 28.128s-11.854 27.392-26.752 28.125l-0.066 0.003h-84.352c-14.964-0.736-26.818-13.048-26.818-28.128s11.854-27.392 26.752-28.125l0.066-0.003zM640.736 184.992h14.048c14.964 0.736 26.818 13.048 26.818 28.128s-11.854 27.392-26.752 28.125l-0.066 0.003h-14.048c-14.964-0.736-26.818-13.048-26.818-28.128s11.854-27.392 26.752-28.125l0.066-0.003zM528.256 184.992h14.048c14.964 0.736 26.818 13.048 26.818 28.128s-11.854 27.392-26.752 28.125l-0.066 0.003h-14.048c-14.964-0.736-26.818-13.048-26.818-28.128s11.854-27.392 26.752-28.125l0.066-0.003z" />
<glyph unicode="&#xe920;" glyph-name="wode" d="M512 341.333c153.167 0 277.333 124.166 277.333 277.333s-124.166 277.333-277.333 277.333c-153.167 0-277.333-124.166-277.333-277.333v0c0-153.167 124.166-277.333 277.333-277.333v0zM387.627 516.693c3.856 3.834 9.171 6.204 15.040 6.204s11.184-2.37 15.041-6.205l-0.001 0.001c24.095-24.984 57.862-40.499 95.253-40.499s71.158 15.515 95.215 40.459l0.038 0.040c3.888 4.024 9.332 6.522 15.36 6.522 11.79 0 21.349-9.558 21.349-21.349 0-5.763-2.283-10.992-5.994-14.833l0.006 0.006c-31.867-33.039-76.524-53.556-125.973-53.556s-94.107 20.517-125.923 53.504l-0.050 0.053c-3.838 3.857-6.211 9.175-6.211 15.047 0 5.657 2.201 10.799 5.794 14.617l-0.010-0.011zM938.667 153.387c-28.16 33.28-168.747 139.307-234.667 147.413s-129.28-64-192-64-125.227 71.467-192 64-207.573-113.92-234.667-147.2-34.56-145.493 42.667-145.493h768c78.507-0.213 71.68 112 42.667 145.28z" />
<glyph unicode="&#xe921;" glyph-name="woshifangdong" d="M514.955 411.716v0 0zM543.114 120.872h-1.627c-9.266 9.059-55.409 56.226-62.311 99.020-7.675 47.582 90.453 122.335 90.453 122.335l6.899 33.8c-14.277 6.644-23.721 11.325-29.42 14.274l-0.46 52.56c10.013 9.396 25.232 30.117 32.764 72.826 14.507 5.507 23.749 23.92 25.31 51.462 0.138 2.263 0.46 5.263 0.826 8.706 2.738 26.115 4.121 48.772-6.821 61.61-0.922 1.081-1.905 2.065-2.95 2.934 3.778 31.182 5.689 53.79 4.308 68.283-2.724 29.542-21.439 126.385-149.784 132.141-89.064-4.788-143.079-71.645-148.683-132.108-1.227-13.115-0.008-33.921 4.058-68.332-1.046-0.885-2.030-1.87-2.95-2.936-10.928-12.77-9.622-35.362-6.977-61.397 0.359-3.508 0.678-6.574 0.811-8.92 1.663-27.574 10.894-45.97 25.31-51.51 7.499-42.741 22.719-63.514 32.723-72.924l-0.515-52.873c-10.528-5.556-33.519-16.951-78.286-36.429-33.177-14.459-44.369-16.411-54.242-18.133-11.753-2.050-21.906-3.818-53.648-20.41-78.465-41.020-95.698-124.566-99.477-160.405h-0.097c-0.926-5.857-3.612-25.24-0.306-34.656 8.649-18.729 28.494-32.495 49.783-32.495l425.372 0.309v31.708h-0.068v1.561zM514.955 411.716v0 0 0zM960.812 247.802c-0.52 0.668-1.121 1.266-1.79 1.785l-19.592 19.534-189.486 189.486-3.579-3.579-0.975 0.972-207.32-206.761c-0.133-0.126-0.264-0.255-0.391-0.388-1.747-1.836-2.826-4.313-2.826-7.048 0-5.652 4.581-10.233 10.233-10.233h14.129v-0.017h48.103v-176.377h288.616v176.377l56.938 0.017c5.558 0 10.062 4.506 10.062 10.062 0.002 2.328-0.796 4.465-2.122 6.17z" />
<glyph unicode="&#xe922;" glyph-name="woshizufang" d="M998.4 544l-473.6 409.6c-6.4 6.4-19.2 6.4-25.6 0l-473.6-409.6c-6.4-6.4-6.4-19.2 0-32 6.4 0 19.2-6.4 25.6 0l32 25.6v-588.8h6.4c0-6.4 0-12.8 6.4-12.8 0 6.4 6.4 0 12.8 0h793.6c6.4 0 6.4 0 12.8 6.4s6.4 6.4 6.4 12.8v588.8l51.2-32c6.4-6.4 19.2-6.4 25.6 0 12.8 12.8 12.8 25.6 0 32zM531.2 339.2h134.4c12.8 0 25.6-12.8 25.6-25.6s-12.8-25.6-25.6-25.6h-128v-70.4h128c12.8 0 25.6-12.8 25.6-25.6s-12.8-25.6-25.6-25.6h-128v-83.2c0-12.8-12.8-25.6-25.6-25.6s-32 6.4-32 19.2v83.2h-128c-19.2 0-32 12.8-32 32s12.8 25.6 25.6 25.6h128v70.4h-128c-12.8 0-25.6 12.8-25.6 25.6s12.8 25.6 25.6 25.6h134.4v6.4s-6.4 0-6.4 6.4l-96 115.2c-6.4 12.8-6.4 25.6 6.4 38.4 6.4 6.4 25.6 6.4 38.4-6.4l89.6-102.4 89.6 102.4c6.4 12.8 19.2 12.8 32 6.4 12.8-12.8 12.8-25.6 6.4-38.4l-102.4-121.6-6.4-6.4z" />
<glyph unicode="&#xe923;" glyph-name="xiajiantou_shixin" d="M573.056 208l308.8 404.608c9.826 12.771 15.747 28.99 15.747 46.592 0 42.415-34.385 76.8-76.8 76.8-0.024 0-0.047 0-0.071 0h-617.5c-0.001 0-0.002 0-0.003 0-42.415 0-76.8-34.385-76.8-76.8 0-17.602 5.922-33.821 15.881-46.773l-0.134 0.181 308.8-404.608c14.174-18.431 36.234-30.191 61.040-30.191s46.866 11.761 60.906 30.011l0.134 0.181z" />
<glyph unicode="&#xe924;" glyph-name="xiajiantou" d="M832.522 587.533c0-8.782-3.236-17.565-9.708-24.269l-287.176-297.485c-12.933-13.408-33.923-13.408-46.855 0l-287.172 297.485c-12.944 13.408-12.944 35.13 0 48.538 12.933 13.408 33.923 13.408 46.855 0l263.745-273.216 263.748 273.216c12.933 13.408 33.923 13.408 46.855 0 6.472-6.705 9.708-15.488 9.708-24.27z" />
<glyph unicode="&#xe925;" glyph-name="yanwubaojingqi" d="M512 896c-247.040 0-448-200.96-448-448s200.96-448 448-448 448 200.96 448 448-200.96 448-448 448zM512 64c-211.744 0-384 172.256-384 384s172.256 384 384 384 384-172.256 384-384-172.256-384-384-384zM404.96 189.568c-35.293 14.822-65.416 35.321-90.681 60.665l-0.007 0.007c-25.361 25.282-45.87 55.415-60.018 88.892l-0.686 1.828c-4.94 11.694-16.313 19.751-29.568 19.751-17.677 0-32.007-14.33-32.007-32.007 0-4.422 0.897-8.635 2.518-12.466l-0.079 0.21c18.216-43.379 43.419-80.402 74.582-111.446l0.010-0.010c31.063-31.149 68.084-56.338 109.21-73.717l2.246-0.843c3.624-1.549 7.84-2.45 12.267-2.45 13.246 0 24.609 8.065 29.446 19.552l0.078 0.21c1.55 3.627 2.452 7.847 2.452 12.277 0 13.253-8.064 24.622-19.554 29.468l-0.21 0.079zM211.744 537.728c3.643-1.572 7.885-2.486 12.341-2.486 13.236 0 24.588 8.069 29.405 19.556l0.078 0.21c14.825 35.308 35.335 65.442 60.696 90.712l0.008 0.008c25.272 25.361 55.395 45.87 88.861 60.018l1.827 0.686c11.694 4.94 19.751 16.313 19.751 29.568 0 17.677-14.33 32.007-32.007 32.007-4.422 0-8.635-0.897-12.466-2.518l0.21 0.079c-43.374-18.218-80.395-43.408-111.448-74.552l-0.008-0.008c-31.152-31.071-56.343-68.103-73.717-109.241l-0.843-2.247c-1.537-3.615-2.43-7.819-2.43-12.233 0-13.25 8.053-24.62 19.533-29.48l0.21-0.079zM619.040 706.432c35.302-14.843 65.433-35.351 90.714-60.698l0.006-0.006c25.343-25.277 45.84-55.398 59.986-88.86l0.686-1.828c4.94-11.694 16.313-19.751 29.568-19.751 17.677 0 32.007 14.33 32.007 32.007 0 4.422-0.897 8.635-2.518 12.466l0.079-0.21c-18.222 43.372-43.411 80.393-74.552 111.448l-0.008 0.008c-31.065 31.155-68.084 56.354-109.209 73.748l-2.247 0.844c-3.419 1.358-7.38 2.145-11.525 2.145-17.691 0-32.032-14.341-32.032-32.032 0-12.989 7.731-24.173 18.843-29.199l0.202-0.082zM812.256 358.272c-3.609 1.526-7.805 2.412-12.208 2.412-13.261 0-24.643-8.042-29.536-19.515l-0.079-0.21c-14.822-35.304-35.321-65.438-60.666-90.714l-0.006-0.006c-25.282-25.351-55.416-45.85-88.892-59.987l-1.828-0.685c-11.694-4.94-19.751-16.313-19.751-29.568 0-17.677 14.33-32.007 32.007-32.007 4.422 0 8.635 0.897 12.466 2.518l-0.21-0.079c43.372 18.222 80.393 43.411 111.448 74.552l0.008 0.008c31.134 31.072 56.321 68.090 73.715 109.206l0.845 2.25c1.544 3.622 2.442 7.836 2.442 12.26 0 13.255-8.059 24.627-19.544 29.485l-0.21 0.079zM348.576 611.424c-20.933-20.89-37.863-45.782-49.545-73.433l-0.567-1.511c-1.547-3.626-2.446-7.844-2.446-12.272 0-17.681 14.333-32.014 32.014-32.014 13.252 0 24.624 8.053 29.489 19.532l0.079 0.21c8.87 21.091 21.117 39.095 36.254 54.206l0.002 0.002c15.107 15.159 33.112 27.419 53.116 35.878l1.092 0.41c11.081 5.199 18.617 16.264 18.617 29.088 0 17.691-14.341 32.032-32.032 32.032-3.984 0-7.799-0.727-11.318-2.057l0.22 0.073c-29.172-12.265-54.074-29.204-74.973-50.141l-0.003-0.003zM575.968 602.432c20.288-8.416 38.528-20.64 54.176-36.256s27.84-33.888 36.288-54.208c4.944-11.689 16.316-19.742 29.568-19.742 17.681 0 32.014 14.333 32.014 32.014 0 4.428-0.899 8.646-2.525 12.482l0.079-0.21c-12.274 29.158-29.212 54.047-50.141 74.941l-0.003 0.003c-20.892 20.929-45.784 37.858-73.432 49.544l-1.512 0.568c-3.621 1.543-7.834 2.439-12.256 2.439-17.677 0-32.007-14.33-32.007-32.007 0-13.255 8.057-24.628 19.542-29.489l0.21-0.079zM448.032 293.568c-21.094 8.873-39.099 21.132-54.204 36.284l-0.004 0.004c-15.145 15.105-27.402 33.097-35.876 53.082l-0.412 1.094c-4.94 11.694-16.313 19.751-29.568 19.751-17.677 0-32.007-14.33-32.007-32.007 0-4.422 0.897-8.635 2.518-12.466l-0.079 0.21c12.265-29.161 29.204-54.052 50.14-74.94l0.004-0.004c20.885-20.951 45.779-37.892 73.434-49.578l1.51-0.566c3.626-1.547 7.844-2.446 12.272-2.446 17.681 0 32.014 14.333 32.014 32.014 0 13.252-8.053 24.624-19.532 29.489l-0.21 0.079zM675.392 284.608c20.947 20.888 37.887 45.78 49.577 73.433l0.567 1.511c1.543 3.621 2.439 7.834 2.439 12.256 0 17.677-14.33 32.007-32.007 32.007-13.255 0-24.628-8.057-29.489-19.542l-0.079-0.21c-8.416-20.288-20.64-38.528-36.288-54.176s-33.92-27.872-54.176-36.288c-11.694-4.94-19.751-16.313-19.751-29.568 0-17.677 14.33-32.007 32.007-32.007 4.422 0 8.635 0.897 12.466 2.518l-0.21-0.079c29.175 12.226 54.072 29.171 74.935 50.135l0.009 0.009zM640 448c0 70.592-57.408 128-128 128s-128-57.408-128-128 57.408-128 128-128 128 57.408 128 128zM512 384c-35.296 0-64 28.704-64 64s28.704 64 64 64 64-28.704 64-64-28.704-64-64-64z" />
<glyph unicode="&#xe926;" glyph-name="yijianfankui" d="M813.7 573.3v214c0 41.4-33.5 74.9-74.9 74.9h-449.6c-41.4 0-74.9-33.6-74.9-74.9v-214l299.7-213.1 299.7 213.1zM329.6 770h368.9c12.7 0 23.1-10.3 23.1-23.1 0-12.7-10.3-23.1-23.1-23.1h-368.9c-12.7 0-23.1 10.3-23.1 23.1s10.3 23.1 23.1 23.1zM306.5 654.7c0 12.7 10.3 23.1 23.1 23.1h230.6c12.7 0 23.1-10.3 23.1-23.1 0-12.7-10.3-23.1-23.1-23.1h-230.6c-12.8 0-23.1 10.4-23.1 23.1zM921.5 593.3l-367.7-261.4 367.7-261.4c4.7 9.3 7.6 19.7 7.6 30.8v461.2c-0.1 11.1-3 21.5-7.6 30.8zM99 562.5v-461.1c0-38.2 31-69.2 69.2-69.2h691.7c9.9 0 19.2 2.1 27.7 5.9l-781 555.3c-4.7-9.4-7.6-19.8-7.6-30.9z" />
<glyph unicode="&#xe927;" glyph-name="yinsizhengce" d="M170.996 834.28c35.822-11.49 82.282-9.983 139.524 5.643 59.517 16.247 119.876 44.842 181.082 85.96 5.634 3.831 12.588 6.117 20.075 6.117 7.219 0 13.943-2.125 19.578-5.784l-0.14 0.085c66.49-42.653 127.344-71.386 182.35-86.373 53.044-14.454 100.030-15.98 141.384-5.11 22.825 5.998 45.151-11.219 45.151-34.818v-435.61c0-183.2-128.142-341.438-307.341-379.523-22.62-4.807-45.702-11.141-69.248-19.010-3.405-1.177-7.33-1.857-11.413-1.857-4.050 0-7.943 0.669-11.577 1.902l0.254-0.075c-23.555 7.807-46.622 14.101-69.202 18.892-179.262 38.031-307.473 196.3-307.473 379.551v435.73c0 24.4 23.761 41.732 46.996 34.28zM448.39 327.486v-0.001l-111.18 122.715c-11.808 12.24-29.030 9.935-40.723-2.425l-27.31-28.872c-2.903-3.069-2.903-8.012 0-11.081l132.076-144.429 26.017-27.503c11.809-12.24 30.86-12.14 42.553 0.22l285.943 312.967c2.903 3.069 2.903 8.012 0 11.081l-29.082 30.305c-11.809 12.24-29.299 10.927-40.99-1.433l-237.304-261.544z" />
<glyph unicode="&#xe928;" glyph-name="youjiantou" d="M722.438 449.185c-0.246 0.246-0.513 0.454-0.766 0.69l-299.893 299.892c-14.231 14.24-37.291 14.24-51.529 0-14.241-14.231-14.241-37.291 0-51.529l274.851-274.859-274.849-274.851c-14.241-14.237-14.241-37.301 0-51.532 7.116-7.119 16.436-10.682 25.764-10.682 9.321 0 18.644 3.563 25.763 10.682l299.905 299.901c0.246 0.234 0.51 0.438 0.751 0.678 7.129 7.13 10.685 16.469 10.674 25.804 0.006 9.337-3.55 18.676-10.674 25.804z" />
</font>
</defs>
</svg>
